<svg width="88" height="16" viewBox="0 0 88 16" fill="none" xmlns="http://www.w3.org/2000/svg">
<g clip-path="url(#clip0_1603_5519)">
<path d="M15.2512 0H8.64845C4.1663 0 0.5 3.69664 0.5 8.21588V12.666C4.01965 7.09998 9.15752 2.65828 15.2512 0Z" fill="#F9F9F9"/>
<path d="M38.4579 9.41909L37.0858 5.31452L35.6951 9.41909H38.4579ZM43.7104 14.2131H40.1756L39.3547 11.9678H34.7815L33.905 14.2131H30.4072L35.3041 1.33301H38.9147L43.7104 14.2131Z" fill="#F9F9F9"/>
<path d="M54.6918 1.33301L49.9248 8.02337V14.2131H46.6125V8.02337L42.0039 1.33301H45.9601L48.3656 4.84254L50.68 1.33301H54.6918Z" fill="#F9F9F9"/>
<path d="M26.9041 5.61191C26.9041 5.13318 26.7659 4.74885 26.4877 4.46229C26.2096 4.17404 25.7376 4.03076 25.0701 4.03076H23.9559V7.24025H25.06C25.7781 7.24025 26.2703 7.0818 26.5383 6.76658C26.781 6.48339 26.9041 6.09738 26.9041 5.61191ZM30.3361 5.57482C30.3361 6.73624 30.0647 7.69875 29.5236 8.45898C28.8223 9.44509 27.6559 9.9373 26.0258 9.93898H23.9542V14.2121H20.6436V1.33203H25.9129C27.4115 1.33203 28.5493 1.77536 29.328 2.66201C30.0006 3.42393 30.3378 4.39318 30.3361 5.57482Z" fill="#F9F9F9"/>
<path d="M1.66211 15.4491L8.28673 15.4744C12.5953 15.4913 16.1014 11.9834 16.1183 7.64118L16.1469 0.290039C9.84259 3.65123 4.74349 8.97453 1.66211 15.4491Z" fill="#42BF00"/>
<path d="M59.7546 10.0453C59.7529 10.556 59.7192 10.9741 59.6585 11.3011C59.5253 11.9956 59.1578 12.6209 58.5493 13.1789C57.7587 13.9004 56.7996 14.2611 55.6702 14.256C54.3318 14.251 53.2496 13.6256 52.4287 12.3816L54.5594 10.2088C54.6538 11.0263 55.0044 11.4376 55.6095 11.4393C56.2147 11.441 56.5316 10.9572 56.5248 9.98289L56.5181 9.29009L56.5501 1.32031L59.79 1.3338L59.7563 10.0436H59.7546V10.0453Z" fill="#42BF00"/>
<path d="M71.5473 7.87887C71.5507 7.02593 71.2843 6.28761 70.7483 5.66392C70.0606 4.86829 69.1992 4.4671 68.1625 4.46373C67.4478 4.46036 66.8005 4.66095 66.2206 5.06382C65.6391 5.4667 65.2244 6.0061 64.9766 6.67868C64.8333 7.0647 64.7609 7.45408 64.7592 7.85358C64.7558 8.66944 65.0238 9.4027 65.5599 10.05C66.224 10.8524 67.0837 11.2552 68.1372 11.2586C69.1908 11.262 70.0555 10.8692 70.7331 10.0786C71.2709 9.44653 71.5439 8.71495 71.5473 7.87887ZM74.7703 7.89067C74.7635 9.53081 74.2174 10.9704 73.1335 12.2076C71.8962 13.6135 70.2257 14.313 68.1237 14.3046C66.0268 14.2962 64.3664 13.5848 63.1409 12.1672C62.0655 10.9198 61.5295 9.47855 61.5362 7.83673C61.5396 7.08661 61.6896 6.31627 61.9812 5.53075C62.2779 4.74355 62.6706 4.07097 63.1645 3.51134C64.4018 2.1055 66.0706 1.40595 68.1743 1.41438C70.2763 1.42281 71.9401 2.13584 73.1672 3.55179C74.241 4.7958 74.777 6.24378 74.7703 7.89067Z" fill="#42BF00"/>
<path d="M87.501 1.50174L82.7103 8.17356L82.685 14.3633L79.3727 14.3498L79.398 8.16008L74.8164 1.45117L78.771 1.46634L81.1646 4.98599L83.4908 1.48489L87.501 1.50174Z" fill="#42BF00"/>
</g>
<defs>
<clipPath id="clip0_1603_5519">
<rect width="87" height="15.476" fill="white" transform="translate(0.5)"/>
</clipPath>
</defs>
</svg>
