<svg width="17" height="16" viewBox="0 0 17 16" fill="none" xmlns="http://www.w3.org/2000/svg">
<path fill-rule="evenodd" clip-rule="evenodd" d="M12 0.900391H5C2.58376 0.900391 0.625 2.76587 0.625 5.06706V11.7337C0.625 14.0349 2.58376 15.9004 5 15.9004H12C14.4162 15.9004 16.375 14.0349 16.375 11.7337V5.06706C16.375 2.76587 14.4162 0.900391 12 0.900391ZM14.8438 11.7337C14.8389 13.2276 13.5685 14.4375 12 14.4421H5C3.43143 14.4375 2.16105 13.2276 2.15625 11.7337V5.06706C2.16105 3.57318 3.43143 2.3633 5 2.35872H12C13.5685 2.3633 14.8389 3.57318 14.8438 5.06706V11.7337ZM12.6562 5.27539C13.1395 5.27539 13.5312 4.90229 13.5312 4.44206C13.5312 3.98182 13.1395 3.60872 12.6562 3.60872C12.173 3.60872 11.7812 3.98182 11.7812 4.44206C11.7812 4.90229 12.173 5.27539 12.6562 5.27539ZM8.5 4.65039C6.32538 4.65039 4.5625 6.32932 4.5625 8.40039C4.5625 10.4715 6.32538 12.1504 8.5 12.1504C10.6746 12.1504 12.4375 10.4715 12.4375 8.40039C12.4399 7.40514 12.0257 6.45003 11.2868 5.74629C10.5479 5.04255 9.54501 4.64817 8.5 4.65039ZM6.09375 8.40039C6.09375 9.66606 7.17105 10.6921 8.5 10.6921C9.82895 10.6921 10.9062 9.66606 10.9062 8.40039C10.9062 7.13472 9.82895 6.10872 8.5 6.10872C7.17105 6.10872 6.09375 7.13472 6.09375 8.40039Z" fill="#ffffff"/>
</svg>
