<svg width="17" height="16" viewBox="0 0 17 16" fill="none" xmlns="http://www.w3.org/2000/svg">
<path fill-rule="evenodd" clip-rule="evenodd" d="M1.9375 0.777344C1.21262 0.777344 0.625 1.33699 0.625 2.02734V14.5273C0.625 15.2177 1.21262 15.7773 1.9375 15.7773H15.0625C15.7873 15.7773 16.375 15.2177 16.375 14.5273V2.02734C16.375 1.33699 15.7873 0.777344 15.0625 0.777344H1.9375ZM5.45566 4.11294C5.46059 4.90982 4.83428 5.40084 4.09108 5.39732C3.39094 5.3938 2.78062 4.86294 2.78432 4.11412C2.78801 3.40982 3.37248 2.8438 4.13168 2.86021C4.90196 2.87662 5.46059 3.41451 5.45566 4.11294ZM8.74474 6.41214H6.53975H6.53851V13.5453H8.86899V13.3789C8.86899 13.0623 8.86872 12.7457 8.86846 12.4289C8.86776 11.5841 8.86697 10.7383 8.87152 9.89376C8.87275 9.68868 8.88255 9.47543 8.93794 9.27968C9.14584 8.54843 9.83621 8.07618 10.6065 8.19226C11.1011 8.26601 11.4284 8.53909 11.5662 8.98326C11.6511 9.26093 11.6893 9.55976 11.693 9.84926C11.7029 10.7223 11.7015 11.5953 11.7001 12.4683C11.6996 12.7765 11.6991 13.0848 11.6991 13.393V13.5442H14.037V13.3731C14.037 12.9964 14.0368 12.6198 14.0366 12.2433C14.0361 11.302 14.0356 10.3608 14.0382 9.41918C14.0394 8.99376 13.9915 8.57426 13.882 8.16293C13.7183 7.55118 13.38 7.04493 12.8299 6.67934C12.4399 6.41917 12.0116 6.25159 11.533 6.23284C11.4785 6.23069 11.4235 6.22786 11.3683 6.22502C11.1236 6.21242 10.8748 6.19962 10.6409 6.24456C9.97149 6.37229 9.3834 6.66409 8.93916 7.17851C8.88754 7.23751 8.83705 7.29743 8.76171 7.38684L8.74474 7.40709V6.41214ZM2.97144 13.5477H5.29087V6.41679H2.97144V13.5477Z" fill="#ffffff"/>
</svg>
